# xmcd
#
# Track frame offsets:
#	150
#	13900
#	30066
#	47596
#	63779
#	80571
#	96996
#	113158
#	131833
#	147995
#	164705
#	180966
#	196445
#	210050
#	229015
#	251935
#	269691
#	289683
#	303249
#	320755
#	336101
#
# Disc length: 4767 seconds
#
# Revision: 1
# Processed by: cddbd v1.5.2PL0 Copyright (c) Steve Scherf et al.
# Submitted via: EZCDAudioConverter 6.0.9.1
#
DISCID=2e129d15
DTITLE=Various Artist - NOW That's What I Call Music! 102 [CD2]
DYEAR=2019
DGENRE=Contemporary Pop
TTITLE0=Lewis Capaldi - Someone You Loved
TTITLE1=Lady Gaga and Bradley Cooper - Shallow
TTITLE2=Keala Settle and Greatest Showman Ensemble - This Is Me
TTITLE3=Jess Glynne - Thursday
TTITLE4=Freya Ridings - Lost Without You
TTITLE5=James Arthur and Anne-Marie - Rewrite the Stars
TTITLE6=Jack Savoretti - Candlelight
TTITLE7=The 1975 - It's Not Living (If It's Not With You)
TTITLE8=Westlife - Hello My Love
TTITLE9=Take That - Everlasting
TTITLE10=Hozier - Almost (Sweet Music)
TTITLE11=Bryan Adams - Shine a Light
TTITLE12=Michael Bublé - Love You Anymore
TTITLE13=Rod Stewart - Look In Her Eyes
TTITLE14=Hugh Jackman, Keala Settle, Zac Efron, Zendaya and The Greatest Showman
TTITLE14=Ensemble - The Greatest Show
TTITLE15=Frankie Goes to Hollywood - Relax
TTITLE16=Nik Kershaw - Wouldn't It Be Good
TTITLE17=Matthew Wilder - Break My Stride
TTITLE18=Cyndi Lauper - Girls Just Want to Have Fun
TTITLE19=Culture Club - It's a Miracle
TTITLE20=Thompson Twins - Hold Me Now
EXTD=
EXTT0=
EXTT1=
EXTT2=
EXTT3=
EXTT4=
EXTT5=
EXTT6=
EXTT7=
EXTT8=
EXTT9=
EXTT10=
EXTT11=
EXTT12=
EXTT13=
EXTT14=
EXTT15=
EXTT16=
EXTT17=
EXTT18=
EXTT19=
EXTT20=
PLAYORDER=
